<svg width="1106" height="458" xmlns="http://www.w3.org/2000/svg" xmlns:xlink="http://www.w3.org/1999/xlink" overflow="hidden"><defs><clipPath id="clip0"><rect x="87" y="191" width="1106" height="458"/></clipPath><clipPath id="clip1"><rect x="88" y="191" width="1104" height="457"/></clipPath><clipPath id="clip2"><rect x="88" y="191" width="1104" height="457"/></clipPath><clipPath id="clip3"><rect x="121" y="249" width="1057" height="337"/></clipPath><clipPath id="clip4"><rect x="121" y="249" width="1057" height="337"/></clipPath><clipPath id="clip5"><rect x="88" y="191" width="1104" height="457"/></clipPath><clipPath id="clip6"><rect x="88" y="191" width="1104" height="457"/></clipPath><clipPath id="clip7"><rect x="88" y="191" width="1104" height="457"/></clipPath><clipPath id="clip8"><rect x="88" y="191" width="1104" height="457"/></clipPath><clipPath id="clip9"><rect x="88" y="191" width="1104" height="457"/></clipPath><clipPath id="clip10"><rect x="88" y="191" width="1104" height="457"/></clipPath><clipPath id="clip11"><rect x="88" y="191" width="1104" height="457"/></clipPath><clipPath id="clip12"><rect x="88" y="191" width="1104" height="457"/></clipPath><clipPath id="clip13"><rect x="88" y="191" width="1104" height="457"/></clipPath><clipPath id="clip14"><rect x="88" y="191" width="1104" height="457"/></clipPath><clipPath id="clip15"><rect x="88" y="191" width="1104" height="457"/></clipPath><clipPath id="clip16"><rect x="88" y="191" width="1104" height="457"/></clipPath><clipPath id="clip17"><rect x="88" y="191" width="1104" height="457"/></clipPath><clipPath id="clip18"><rect x="88" y="191" width="1104" height="457"/></clipPath><clipPath id="clip19"><rect x="88" y="191" width="1104" height="457"/></clipPath><clipPath id="clip20"><rect x="88" y="191" width="1104" height="457"/></clipPath><clipPath id="clip21"><rect x="88" y="191" width="1104" height="457"/></clipPath><clipPath id="clip22"><rect x="88" y="191" width="1104" height="457"/></clipPath><clipPath id="clip23"><rect x="88" y="191" width="1104" height="457"/></clipPath><clipPath id="clip24"><rect x="88" y="191" width="1104" height="457"/></clipPath><clipPath id="clip25"><rect x="88" y="191" width="1104" height="457"/></clipPath></defs><g clip-path="url(#clip0)" transform="translate(-87 -191)"><g clip-path="url(#clip1)"><path d="M121.5 537.5 1177.5 537.5M121.5 489.5 1177.5 489.5M121.5 441.5 1177.5 441.5M121.5 393.5 1177.5 393.5M121.5 345.5 1177.5 345.5M121.5 297.5 1177.5 297.5M121.5 249.5 1177.5 249.5" stroke="#D9D9D9" stroke-linejoin="round" stroke-miterlimit="10" fill="none"/></g><g clip-path="url(#clip2)"><path d="M121.5 585.5 1177.5 585.5" stroke="#D9D9D9" stroke-linejoin="round" stroke-miterlimit="10" fill="none" fill-rule="evenodd"/></g><g clip-path="url(#clip3)"><path d="M197.5 412.5 347.5 383.5 498.5 393.5 649.5 383.5 800.5 441.5 951.5 431.5 1101.5 431.5" stroke="#4472C4" stroke-width="3" stroke-linecap="round" stroke-linejoin="round" stroke-miterlimit="10" fill="none"/></g><g clip-path="url(#clip4)"><path d="M197.5 287.5 347.5 307.5 498.5 355.5 649.5 326.5 800.5 383.5 951.5 364.5 1101.5 335.5" stroke="#ED7D31" stroke-width="3" stroke-linecap="round" stroke-linejoin="round" stroke-miterlimit="10" fill="none"/></g><g clip-path="url(#clip5)"><text fill="#595959" font-family="Yu Gothic,Yu Gothic_MSFontService,sans-serif" font-weight="400" transform="translate(103.34 589)">0</text></g><g clip-path="url(#clip6)"><text fill="#595959" font-family="Yu Gothic,Yu Gothic_MSFontService,sans-serif" font-weight="400" transform="translate(103.34 541)">5</text></g><g clip-path="url(#clip7)"><text fill="#595959" font-family="Yu Gothic,Yu Gothic_MSFontService,sans-serif" font-weight="400" transform="translate(96.6667 493)">10</text></g><g clip-path="url(#clip8)"><text fill="#595959" font-family="Yu Gothic,Yu Gothic_MSFontService,sans-serif" font-weight="400" transform="translate(96.6667 445)">15</text></g><g clip-path="url(#clip9)"><text fill="#595959" font-family="Yu Gothic,Yu Gothic_MSFontService,sans-serif" font-weight="400" transform="translate(96.6667 397)">20</text></g><g clip-path="url(#clip10)"><text fill="#595959" font-family="Yu Gothic,Yu Gothic_MSFontService,sans-serif" font-weight="400" transform="translate(96.6667 349)">25</text></g><g clip-path="url(#clip11)"><text fill="#595959" font-family="Yu Gothic,Yu Gothic_MSFontService,sans-serif" font-weight="400" transform="translate(96.6667 301)">30</text></g><g clip-path="url(#clip12)"><text fill="#595959" font-family="Yu Gothic,Yu Gothic_MSFontService,sans-serif" font-weight="400" transform="translate(96.6667 253)">35</text></g><g clip-path="url(#clip13)"><text fill="#595959" font-family="Yu Gothic,Yu Gothic_MSFontService,sans-serif" font-weight="400" transform="translate(190.407 605)">23</text></g><g clip-path="url(#clip14)"><text fill="#595959" font-family="Yu Gothic,Yu Gothic_MSFontService,sans-serif" font-weight="400" transform="translate(341.216 605)">24</text></g><g clip-path="url(#clip15)"><text fill="#595959" font-family="Yu Gothic,Yu Gothic_MSFontService,sans-serif" font-weight="400" transform="translate(492.024 605)">25</text></g><g clip-path="url(#clip16)"><text fill="#595959" font-family="Yu Gothic,Yu Gothic_MSFontService,sans-serif" font-weight="400" transform="translate(642.832 605)">26</text></g><g clip-path="url(#clip17)"><text fill="#595959" font-family="Yu Gothic,Yu Gothic_MSFontService,sans-serif" font-weight="400" transform="translate(793.64 605)">27</text></g><g clip-path="url(#clip18)"><text fill="#595959" font-family="Yu Gothic,Yu Gothic_MSFontService,sans-serif" font-weight="400" transform="translate(944.448 605)">28</text></g><g clip-path="url(#clip19)"><text fill="#595959" font-family="Yu Gothic,Yu Gothic_MSFontService,sans-serif" font-weight="400" transform="translate(1095.26 605)">29</text></g><g clip-path="url(#clip20)"><text fill="#595959" font-family="Yu Gothic,Yu Gothic_MSFontService,sans-serif" font-weight="400" font-size="19" transform="translate(572.007 224)">グラフ</text></g><g clip-path="url(#clip21)"><text fill="#595959" font-family="Yu Gothic,Yu Gothic_MSFontService,sans-serif" font-weight="400" font-size="19" transform="translate(633.327 224)">タイトル</text></g><g clip-path="url(#clip22)"><path d="M584.5 628.5 610.5 628.5" stroke="#4472C4" stroke-width="3" stroke-linecap="round" stroke-linejoin="round" stroke-miterlimit="10" fill="none" fill-rule="evenodd"/></g><g clip-path="url(#clip23)"><text fill="#595959" font-family="Yu Gothic,Yu Gothic_MSFontService,sans-serif" font-weight="400" transform="translate(612.767 632)">最低</text></g><g clip-path="url(#clip24)"><path d="M647.5 628.5 673.5 628.5" stroke="#ED7D31" stroke-width="3" stroke-linecap="round" stroke-linejoin="round" stroke-miterlimit="10" fill="none" fill-rule="evenodd"/></g><g clip-path="url(#clip25)"><text fill="#595959" font-family="Yu Gothic,Yu Gothic_MSFontService,sans-serif" font-weight="400" transform="translate(676.233 632)">最高</text></g></g></svg>